<svg width="230" height="133" viewBox="0 0 230 133" fill="none" xmlns="http://www.w3.org/2000/svg">
<path d="M21.9668 93.1406C23.1348 93.75 24.3027 94.4102 25.4707 95.1211C26.6895 95.832 27.8066 96.5176 28.8223 97.1777C29.8379 97.7871 30.6758 98.3711 31.3359 98.9297C32.0469 99.4375 32.5039 99.8438 32.707 100.148C32.9609 100.555 33.0879 101.189 33.0879 102.053C33.0879 102.865 33.0117 103.779 32.8594 104.795C32.7578 105.76 32.5801 106.725 32.3262 107.689C32.0723 108.604 31.793 109.34 31.4883 109.898C31.1328 110.609 30.3203 111.523 29.0508 112.641C27.832 113.758 26.4609 114.875 24.9375 115.992C23.4141 117.109 21.916 118.1 20.4434 118.963C19.0215 119.826 17.9297 120.359 17.168 120.562C16.6094 120.715 15.7715 120.867 14.6543 121.02C13.5879 121.172 12.4707 121.299 11.3027 121.4C10.1348 121.502 9.06836 121.578 8.10352 121.629C7.18945 121.629 6.63086 121.578 6.42773 121.477C6.02148 121.223 5.66602 120.842 5.36133 120.334C5.10742 119.826 4.98047 119.166 4.98047 118.354C5.08203 116.576 5.28516 115.357 5.58984 114.697C5.69141 114.545 5.81836 114.469 5.9707 114.469C6.12305 114.418 6.37695 114.393 6.73242 114.393C7.08789 114.393 7.54492 114.393 8.10352 114.393C8.66211 114.393 9.39844 114.367 10.3125 114.316C10.0586 111.727 9.83008 109.264 9.62695 106.928C9.42383 104.592 9.24609 102.535 9.09375 100.758C8.89062 98.6758 8.73828 96.7207 8.63672 94.8926C8.53516 93.1152 8.38281 91.1348 8.17969 88.9512C8.02734 87.0723 7.84961 84.8887 7.64648 82.4004C7.44336 79.9121 7.21484 77.2207 6.96094 74.3262C6.50391 74.3262 5.9707 74.3262 5.36133 74.3262C4.75195 74.3262 4.14258 74.3262 3.5332 74.3262C2.97461 74.2754 2.49219 74.2246 2.08594 74.1738C1.62891 74.0723 1.34961 73.9453 1.24805 73.793C1.04492 73.4883 0.892578 72.9297 0.791016 72.1172C0.689453 71.2539 0.638672 70.416 0.638672 69.6035C0.638672 68.7402 0.791016 67.9023 1.0957 67.0898C1.40039 66.2266 1.75586 65.668 2.16211 65.4141C2.26367 65.3633 2.66992 65.3633 3.38086 65.4141C4.0918 65.4141 4.95508 65.4902 5.9707 65.6426C6.98633 65.7441 8.07812 65.8965 9.24609 66.0996C10.4648 66.252 11.6074 66.4297 12.6738 66.6328C13.7402 66.7852 14.6797 66.9375 15.4922 67.0898C16.3047 67.2422 16.8633 67.3438 17.168 67.3945C17.6758 67.4961 18.6406 67.7754 20.0625 68.2324C21.5352 68.6387 23.1094 69.1211 24.7852 69.6797C26.4609 70.2383 28.0605 70.873 29.584 71.584C31.1074 72.2441 32.1738 72.9043 32.7832 73.5645C33.0371 73.8184 33.2656 74.5293 33.4688 75.6973C33.7227 76.8652 33.9004 78.1602 34.002 79.582C34.1543 81.0039 34.2051 82.3496 34.1543 83.6191C34.1543 84.8379 34.0273 85.6504 33.7734 86.0566C33.5703 86.3613 32.8594 86.8945 31.6406 87.6562C30.4219 88.418 29.0762 89.2051 27.6035 90.0176C25.9277 90.9316 24.0488 91.9727 21.9668 93.1406ZM16.1777 91.6172C16.8379 91.3125 17.7266 90.7031 18.8438 89.7891C20.0117 88.875 21.1543 87.8594 22.2715 86.7422C23.4395 85.5742 24.4297 84.4062 25.2422 83.2383C26.1055 82.0195 26.5371 80.9785 26.5371 80.1152C26.5371 79.8613 26.2578 79.5312 25.6992 79.125C25.1914 78.7188 24.4805 78.3125 23.5664 77.9062C22.6523 77.5 21.5605 77.0938 20.291 76.6875C19.0723 76.2305 17.752 75.8242 16.3301 75.4688L16.1777 91.6172ZM16.1016 113.479C17.5234 113.174 18.8691 112.691 20.1387 112.031C21.4082 111.371 22.5254 110.66 23.4902 109.898C24.4551 109.086 25.2168 108.273 25.7754 107.461C26.334 106.648 26.6133 105.912 26.6133 105.252C26.6133 104.592 26.1816 103.855 25.3184 103.043C24.5059 102.23 23.5156 101.418 22.3477 100.605C21.2305 99.793 20.0879 99.0566 18.9199 98.3965C17.752 97.7363 16.8379 97.2539 16.1777 96.9492L16.1016 113.479ZM57.0912 75.6211C56.2279 75.6719 55.3646 75.6973 54.5013 75.6973C53.6888 75.6465 52.9271 75.6211 52.2162 75.6211C51.4037 75.6211 50.642 75.5957 49.931 75.5449C50.0326 78.2363 50.058 81.3848 50.0072 84.9902C50.0072 88.5449 49.9564 92.2012 49.8548 95.959C49.8041 99.7168 49.7025 103.398 49.5502 107.004C49.4486 110.559 49.3216 113.707 49.1693 116.449C51.099 116.398 52.8002 116.398 54.2728 116.449C55.7455 116.5 56.5326 116.576 56.6341 116.678C56.7357 116.83 56.7357 117.338 56.6341 118.201C56.5326 119.014 56.3802 119.928 56.1771 120.943C55.974 121.908 55.7709 122.797 55.5677 123.609C55.3646 124.473 55.2123 125.006 55.1107 125.209C53.6888 125.26 52.3685 125.26 51.1498 125.209C49.9818 125.209 48.9662 125.158 48.1029 125.057C47.0873 125.006 46.1732 124.93 45.3607 124.828C44.5482 124.676 43.6849 124.498 42.7709 124.295C42.0091 124.092 41.1205 123.838 40.1048 123.533C39.14 123.229 38.1498 122.848 37.1341 122.391C36.931 122.289 36.6771 122.01 36.3724 121.553C36.1185 121.096 35.8392 120.613 35.5345 120.105C35.2806 119.547 35.0775 119.014 34.9252 118.506C34.722 117.998 34.6205 117.643 34.6205 117.439C34.6205 117.389 34.849 117.338 35.306 117.287C35.763 117.186 36.3978 117.109 37.2103 117.059C38.0228 116.957 38.9369 116.881 39.9525 116.83C40.9681 116.729 42.0599 116.652 43.2279 116.602C43.1263 115.129 42.974 113.199 42.7709 110.812C42.6185 108.375 42.4408 105.76 42.2377 102.967C42.0853 100.123 41.9076 97.2285 41.7045 94.2832C41.5521 91.2871 41.4252 88.5195 41.3236 85.9805C41.222 83.3906 41.1712 81.1309 41.1712 79.2012C41.1712 77.2715 41.2474 75.9258 41.3998 75.1641C41.4505 75.0625 41.4759 74.9863 41.4759 74.9355C41.4759 74.834 41.5013 74.7324 41.5521 74.6309L39.4193 74.0977C38.8099 73.9453 38.1498 73.7676 37.4388 73.5645C36.7279 73.3613 36.017 73.1328 35.306 72.8789C35.1029 72.7773 34.849 72.498 34.5443 72.041C34.1888 71.584 33.8587 71.0762 33.5541 70.5176C33.1986 69.959 32.9193 69.4512 32.7162 68.9941C32.4623 68.4863 32.3353 68.1309 32.3353 67.9277C32.3353 67.8262 32.9955 67.7246 34.3158 67.623C35.5853 67.4707 37.1849 67.3438 39.1146 67.2422C41.0443 67.1406 43.1263 67.0645 45.3607 67.0137C47.6459 66.9629 49.7533 66.9375 51.683 66.9375C53.6634 66.9375 55.3138 66.9629 56.6341 67.0137C58.0052 67.0137 58.7416 67.0645 58.8431 67.166C58.9955 67.3184 58.9955 67.8262 58.8431 68.6895C58.7416 69.502 58.5638 70.416 58.3099 71.4316C58.1068 72.3965 57.8783 73.3105 57.6244 74.1738C57.4212 74.9863 57.2435 75.4688 57.0912 75.6211ZM76.3718 95.0449C76.8288 95.959 77.489 97.3301 78.3523 99.1582C79.2155 100.986 80.155 103.018 81.1706 105.252C82.237 107.436 83.278 109.695 84.2937 112.031C85.3601 114.316 86.2995 116.449 87.112 118.43C87.9245 120.359 88.5593 121.984 89.0163 123.305C89.4734 124.625 89.6257 125.361 89.4734 125.514C89.1687 125.768 88.7116 125.895 88.1023 125.895C87.5437 125.895 86.9597 125.818 86.3503 125.666C85.7917 125.514 85.2331 125.311 84.6745 125.057C84.1667 124.803 83.8112 124.523 83.6081 124.219C81.5769 121.172 79.7741 118.379 78.1999 115.84C76.6257 113.301 75.2546 111.092 74.0866 109.213C72.7663 107.08 71.5984 105.125 70.5827 103.348C70.2273 103.906 69.8464 104.465 69.4402 105.023C69.0847 105.531 68.7292 106.014 68.3737 106.471C68.2214 109.061 68.0691 111.498 67.9167 113.783C67.7644 116.068 67.612 118.074 67.4597 119.801C67.3073 121.527 67.1296 122.873 66.9265 123.838C66.7741 124.854 66.6218 125.361 66.4695 125.361C66.0632 125.463 65.5808 125.311 65.0222 124.904C64.5144 124.498 64.0066 123.99 63.4987 123.381C63.0417 122.771 62.6355 122.137 62.28 121.477C61.9245 120.766 61.696 120.156 61.5945 119.648C61.2898 114.57 61.0359 110.025 60.8327 106.014C60.6296 102.002 60.4773 98.4473 60.3757 95.3496C60.2741 92.252 60.198 89.5605 60.1472 87.2754C60.0964 84.9902 60.071 83.0352 60.071 81.4102C60.071 77.6016 60.198 74.9863 60.4519 73.5645C60.655 72.498 61.1628 71.4824 61.9753 70.5176C62.7878 69.502 63.6511 68.6387 64.5652 67.9277C65.53 67.166 66.4187 66.6074 67.2312 66.252C68.0437 65.8457 68.5769 65.7188 68.8308 65.8711C69.0339 66.0234 69.1862 66.9883 69.2878 68.7656C69.3894 70.4922 69.4148 72.7012 69.364 75.3926C69.3132 78.084 69.237 81.1055 69.1355 84.457C69.0339 87.7578 68.907 91.084 68.7546 94.4355C70.532 90.9824 72.3347 87.5801 74.1628 84.2285C76.0417 80.877 77.7683 77.8809 79.3425 75.2402C80.9167 72.5996 82.2624 70.4668 83.3796 68.8418C84.4968 67.166 85.2077 66.3281 85.5124 66.3281C85.8171 66.3281 86.198 66.6582 86.655 67.3184C87.112 67.9277 87.5183 68.7402 87.8737 69.7559C88.28 70.7715 88.5593 71.8633 88.7116 73.0312C88.864 74.1992 88.7624 75.3164 88.407 76.3828C88.2038 76.9922 87.7214 77.957 86.9597 79.2773C86.198 80.5469 85.2585 82.0195 84.1413 83.6953C83.0241 85.3711 81.78 87.1992 80.4089 89.1797C79.0886 91.1094 77.7429 93.0645 76.3718 95.0449ZM113.781 79.3535C113.578 79.6074 112.334 79.6328 110.049 79.4297C107.764 79.2266 104.158 78.8965 99.2325 78.4395C99.2325 80.1152 99.2325 82.1719 99.2325 84.6094C99.2833 87.0469 99.2833 89.6621 99.2325 92.4551C103.041 92.8105 106.012 93.1406 108.145 93.4453C110.277 93.75 111.395 93.9531 111.496 94.0547C111.699 94.2578 111.775 94.6895 111.725 95.3496C111.674 95.959 111.547 96.6445 111.344 97.4062C111.141 98.168 110.887 98.9043 110.582 99.6152C110.277 100.275 109.973 100.707 109.668 100.91C109.414 101.012 108.399 101.164 106.621 101.367C104.895 101.52 102.432 101.672 99.2325 101.824C99.2325 104.008 99.2071 106.166 99.1563 108.299C99.1563 110.432 99.1309 112.387 99.0802 114.164C104.006 114.215 107.586 114.316 109.82 114.469C112.106 114.57 113.35 114.723 113.553 114.926C113.756 115.18 113.756 115.662 113.553 116.373C113.4 117.084 113.121 117.846 112.715 118.658C112.359 119.42 111.953 120.182 111.496 120.943C111.09 121.705 110.76 122.238 110.506 122.543C110.404 122.645 109.795 122.695 108.678 122.695C107.561 122.645 106.316 122.568 104.945 122.467C103.574 122.365 102.254 122.264 100.984 122.162C99.7149 122.01 98.877 121.883 98.4708 121.781C97.7091 121.527 96.8966 121.121 96.0333 120.562C95.17 119.953 94.4845 119.191 93.9766 118.277C93.8751 118.023 93.6973 117.186 93.4434 115.764C93.2403 114.291 93.0118 112.438 92.7579 110.203C92.504 107.969 92.2501 105.455 91.9962 102.662C91.7423 99.8691 91.4884 97.0254 91.2345 94.1309C90.9805 91.2363 90.752 88.3926 90.5489 85.5996C90.3458 82.8066 90.168 80.293 90.0157 78.0586C89.9141 75.7734 89.8634 73.8945 89.8634 72.4219C89.8634 70.8984 89.9395 69.9844 90.0919 69.6797C90.2442 69.2734 90.9552 68.9688 92.2247 68.7656C93.4942 68.5625 95.0177 68.4355 96.795 68.3848C98.5723 68.2832 100.477 68.2578 102.508 68.3086C104.59 68.3594 106.52 68.4609 108.297 68.6133C110.074 68.7148 111.572 68.8672 112.791 69.0703C114.01 69.2227 114.695 69.375 114.848 69.5273C115.051 69.7812 115.152 70.3652 115.152 71.2793C115.203 72.1934 115.152 73.209 115 74.3262C114.899 75.3926 114.721 76.4336 114.467 77.4492C114.264 78.4141 114.035 79.0488 113.781 79.3535ZM142.05 66.7852C142.203 67.0391 142.279 67.623 142.279 68.5371C142.33 69.4512 142.304 70.4414 142.203 71.5078C142.101 72.5742 141.949 73.6152 141.746 74.6309C141.593 75.5957 141.415 76.2305 141.212 76.5352C141.06 76.7891 140.121 76.8906 138.394 76.8398C136.718 76.7383 134.306 76.4844 131.158 76.0781C131.158 78.0586 131.132 80.5977 131.081 83.6953C131.031 86.793 130.929 90.1191 130.777 93.6738C130.675 97.1777 130.548 100.707 130.396 104.262C130.294 107.816 130.167 111.041 130.015 113.936C129.863 116.83 129.71 119.191 129.558 121.02C129.406 122.848 129.279 123.812 129.177 123.914C128.974 124.066 128.619 123.99 128.111 123.686C127.654 123.432 127.171 123.051 126.664 122.543C126.156 122.035 125.673 121.527 125.216 121.02C124.81 120.461 124.531 119.979 124.378 119.572C124.328 119.369 124.226 118.379 124.074 116.602C123.972 114.824 123.845 112.59 123.693 109.898C123.54 107.207 123.363 104.211 123.16 100.91C122.956 97.6094 122.753 94.334 122.55 91.084C122.347 87.834 122.119 84.7871 121.865 81.9434C121.662 79.0996 121.484 76.7383 121.331 74.8594C117.878 74.5039 115.39 74.1484 113.867 73.793C112.343 73.4375 111.48 73.1582 111.277 72.9551C111.074 72.752 110.871 72.3711 110.667 71.8125C110.414 71.2031 110.21 70.5938 110.058 69.9844C109.906 69.375 109.83 68.8164 109.83 68.3086C109.779 67.75 109.83 67.3945 109.982 67.2422C110.083 67.1406 110.947 67.0391 112.572 66.9375C114.146 66.8359 116.101 66.7344 118.437 66.6328C120.773 66.5312 123.287 66.4551 125.978 66.4043C128.72 66.3535 131.259 66.3281 133.595 66.3281C135.931 66.3281 137.886 66.3789 139.46 66.4805C141.085 66.5312 141.949 66.6328 142.05 66.7852ZM173.823 102.662C173.925 102.814 173.899 103.322 173.747 104.186C173.645 105.049 173.468 105.988 173.214 107.004C173.011 108.02 172.782 108.984 172.528 109.898C172.325 110.762 172.147 111.27 171.995 111.422H171.233C171.081 111.422 170.929 111.396 170.776 111.346C171.03 113.783 171.233 115.738 171.386 117.211C171.538 118.684 171.614 119.496 171.614 119.648C171.614 120.004 171.436 120.512 171.081 121.172C170.776 121.832 170.421 122.441 170.014 123C169.608 123.559 169.177 123.99 168.72 124.295C168.313 124.65 168.034 124.676 167.882 124.371C167.628 123.914 167.095 122.543 166.282 120.258C165.47 117.973 164.555 114.85 163.54 110.889C162.524 110.787 161.458 110.686 160.341 110.584C159.274 110.482 158.182 110.381 157.065 110.279C155.948 110.178 154.831 110.051 153.714 109.898C152.647 109.695 151.606 109.518 150.591 109.365C150.083 111.6 149.575 113.707 149.067 115.688C148.61 117.668 148.153 119.395 147.696 120.867C147.29 122.34 146.934 123.508 146.63 124.371C146.325 125.234 146.096 125.666 145.944 125.666C145.538 125.666 145.132 125.412 144.725 124.904C144.319 124.396 143.938 123.787 143.583 123.076C143.278 122.365 143.024 121.629 142.821 120.867C142.618 120.105 142.516 119.471 142.516 118.963C142.618 117.795 142.745 116.576 142.897 115.307C143.1 114.037 143.253 112.869 143.354 111.803C143.507 110.533 143.659 109.289 143.811 108.07H143.507C143.304 107.969 143.024 107.74 142.669 107.385C142.313 107.029 141.958 106.674 141.602 106.318C141.247 105.912 140.942 105.531 140.688 105.176C140.434 104.77 140.307 104.465 140.307 104.262C140.307 104.16 140.663 104.059 141.374 103.957C142.136 103.855 143.126 103.754 144.345 103.652C144.751 100.605 145.182 97.4316 145.639 94.1309C146.096 90.8301 146.554 87.7324 147.011 84.8379C147.468 81.9434 147.899 79.4297 148.305 77.2969C148.762 75.1133 149.143 73.6152 149.448 72.8027C149.956 71.4316 150.845 70.2129 152.114 69.1465C153.384 68.0293 154.704 67.1152 156.075 66.4043C157.497 65.6426 158.843 65.0586 160.112 64.6523C161.382 64.2461 162.321 64.043 162.93 64.043C163.184 64.043 163.464 64.627 163.768 65.7949C164.124 66.9121 164.479 68.4355 164.835 70.3652C165.241 72.2949 165.647 74.5547 166.054 77.1445C166.511 79.6836 166.942 82.375 167.348 85.2188C167.755 88.0625 168.136 90.9824 168.491 93.9785C168.897 96.9238 169.278 99.7422 169.634 102.434C172.173 102.434 173.569 102.51 173.823 102.662ZM152.038 103.119C153.663 103.018 155.288 102.941 156.913 102.891C158.538 102.84 160.137 102.764 161.712 102.662C161.305 100.682 160.848 98.4727 160.341 96.0352C159.934 93.9531 159.452 91.5156 158.893 88.7227C158.335 85.9297 157.776 82.8574 157.218 79.5059C156.608 82.502 155.999 85.4219 155.389 88.2656C154.78 91.0586 154.221 93.5723 153.714 95.8066C153.155 98.3965 152.596 100.834 152.038 103.119ZM204.529 65.8711C204.682 66.0742 204.402 67.1152 203.692 68.9941C203.031 70.8223 202.092 73.1836 200.873 76.0781C199.654 78.9727 198.233 82.248 196.608 85.9043C194.983 89.5098 193.307 93.166 191.58 96.873C193.002 100.479 194.348 104.008 195.617 107.461C196.887 110.863 197.979 113.91 198.893 116.602C199.858 119.242 200.569 121.375 201.026 123C201.533 124.676 201.686 125.539 201.483 125.59C201.127 125.641 200.594 125.463 199.883 125.057C199.223 124.65 198.512 124.143 197.75 123.533C196.988 122.924 196.277 122.289 195.617 121.629C195.008 120.969 194.551 120.385 194.246 119.877C193.485 118.303 192.697 116.703 191.885 115.078C191.072 113.402 190.336 111.879 189.676 110.508C188.914 108.883 188.178 107.309 187.467 105.785C186.147 108.477 184.877 111.016 183.658 113.402C182.49 115.789 181.449 117.871 180.535 119.648C179.621 121.426 178.834 122.822 178.174 123.838C177.565 124.904 177.184 125.438 177.031 125.438C176.574 125.438 176.168 125.184 175.813 124.676C175.508 124.168 175.229 123.559 174.975 122.848C174.772 122.137 174.645 121.426 174.594 120.715C174.543 119.953 174.569 119.318 174.67 118.811C175.686 116.068 176.676 113.352 177.641 110.66C178.606 107.969 179.494 105.557 180.307 103.424C181.221 100.936 182.11 98.5742 182.973 96.3398C181.805 93.8516 180.662 91.4141 179.545 89.0273C178.428 86.5898 177.412 84.3555 176.498 82.3242C175.635 80.293 174.924 78.541 174.365 77.0684C173.756 75.5957 173.375 74.5293 173.223 73.8691C172.969 72.8027 173.045 71.7871 173.451 70.8223C173.858 69.8066 174.365 68.918 174.975 68.1562C175.584 67.3945 176.219 66.8105 176.879 66.4043C177.539 65.998 178.022 65.8711 178.326 66.0234C178.529 66.1758 178.91 66.7852 179.469 67.8516C180.027 68.8672 180.688 70.2383 181.449 71.9648C182.262 73.6914 183.151 75.7227 184.115 78.0586C185.08 80.3438 186.096 82.7812 187.162 85.3711C188.483 82.0195 189.676 79.0742 190.742 76.5352C191.809 73.9453 192.647 72.2188 193.256 71.3555C193.916 70.2891 194.856 69.375 196.074 68.6133C197.293 67.8008 198.486 67.166 199.654 66.709C200.873 66.2012 201.94 65.8965 202.854 65.7949C203.819 65.6426 204.377 65.668 204.529 65.8711ZM223.125 75.6211C222.261 75.6719 221.398 75.6973 220.535 75.6973C219.722 75.6465 218.96 75.6211 218.25 75.6211C217.437 75.6211 216.675 75.5957 215.964 75.5449C216.066 78.2363 216.091 81.3848 216.041 84.9902C216.041 88.5449 215.99 92.2012 215.888 95.959C215.837 99.7168 215.736 103.398 215.584 107.004C215.482 110.559 215.355 113.707 215.203 116.449C217.132 116.398 218.834 116.398 220.306 116.449C221.779 116.5 222.566 116.576 222.667 116.678C222.769 116.83 222.769 117.338 222.667 118.201C222.566 119.014 222.414 119.928 222.21 120.943C222.007 121.908 221.804 122.797 221.601 123.609C221.398 124.473 221.246 125.006 221.144 125.209C219.722 125.26 218.402 125.26 217.183 125.209C216.015 125.209 215 125.158 214.136 125.057C213.121 125.006 212.207 124.93 211.394 124.828C210.582 124.676 209.718 124.498 208.804 124.295C208.042 124.092 207.154 123.838 206.138 123.533C205.173 123.229 204.183 122.848 203.167 122.391C202.964 122.289 202.71 122.01 202.406 121.553C202.152 121.096 201.873 120.613 201.568 120.105C201.314 119.547 201.111 119.014 200.959 118.506C200.755 117.998 200.654 117.643 200.654 117.439C200.654 117.389 200.882 117.338 201.339 117.287C201.796 117.186 202.431 117.109 203.244 117.059C204.056 116.957 204.97 116.881 205.986 116.83C207.001 116.729 208.093 116.652 209.261 116.602C209.16 115.129 209.007 113.199 208.804 110.812C208.652 108.375 208.474 105.76 208.271 102.967C208.119 100.123 207.941 97.2285 207.738 94.2832C207.585 91.2871 207.459 88.5195 207.357 85.9805C207.255 83.3906 207.205 81.1309 207.205 79.2012C207.205 77.2715 207.281 75.9258 207.433 75.1641C207.484 75.0625 207.509 74.9863 207.509 74.9355C207.509 74.834 207.535 74.7324 207.585 74.6309L205.453 74.0977C204.843 73.9453 204.183 73.7676 203.472 73.5645C202.761 73.3613 202.05 73.1328 201.339 72.8789C201.136 72.7773 200.882 72.498 200.578 72.041C200.222 71.584 199.892 71.0762 199.587 70.5176C199.232 69.959 198.953 69.4512 198.75 68.9941C198.496 68.4863 198.369 68.1309 198.369 67.9277C198.369 67.8262 199.029 67.7246 200.349 67.623C201.619 67.4707 203.218 67.3438 205.148 67.2422C207.078 67.1406 209.16 67.0645 211.394 67.0137C213.679 66.9629 215.787 66.9375 217.716 66.9375C219.697 66.9375 221.347 66.9629 222.667 67.0137C224.039 67.0137 224.775 67.0645 224.876 67.166C225.029 67.3184 225.029 67.8262 224.876 68.6895C224.775 69.502 224.597 70.416 224.343 71.4316C224.14 72.3965 223.912 73.3105 223.658 74.1738C223.455 74.9863 223.277 75.4688 223.125 75.6211Z" fill="white"/>
<path d="M141.523 16.206C140.42 16.206 139.525 15.3126 139.523 14.2093L139.519 11.616L139.522 7.00437C139.525 3.68895 136.838 1 133.522 1H99.9128C96.2263 1 92.6115 2.01891 89.4677 3.94421L81.8604 8.60298L74.5751 13.0645C71.2074 15.1269 67.3829 16.3264 63.4406 16.5567L54.2426 17.0941C49.901 17.3477 45.6089 18.1501 41.4689 19.4822V19.4822C39.3112 20.1765 37.4428 21.5629 36.1529 23.4267L32.3554 28.9141C32.124 29.2485 32 29.6456 32 30.0522V32.1354C32 32.6658 32.2107 33.1745 32.5858 33.5496L33.453 34.4168C33.719 34.6828 33.8684 35.0435 33.8684 35.4196V36.8707C33.8684 39.9854 36.3934 42.5105 39.5082 42.5105V42.5105C40.6804 42.5105 41.6624 41.6082 41.9704 40.4771C42.5525 38.3398 43.8331 35.3295 46.2795 32.4156C47.0979 31.4428 50.0202 27.9415 55.5289 27.9415C61.8174 27.9415 64.0333 27.5168 68.1059 30.4082C70.6247 32.1955 72.1455 35.7047 72.9242 38.5864C73.5004 40.7191 75.3708 42.522 77.5799 42.522H138.64C140.744 42.522 142.453 40.8823 142.822 38.8101C143.804 33.299 146.303 28.5261 151.729 27.5863C156.551 26.7486 159.998 26.8799 165.727 27.5014C171.517 28.1275 173.776 33.0315 174.563 38.7562C174.851 40.8498 176.555 42.522 178.668 42.522H180.755C184.814 42.522 188.647 40.6528 191.147 37.4543V37.4543C192.159 36.1585 192.912 34.6793 193.363 33.0979L193.936 31.0896C193.976 30.95 193.996 30.8055 193.996 30.6603V18.206C193.996 17.1014 193.101 16.206 191.996 16.206H141.523ZM46.1057 23.6839C46.1057 24.3605 45.6893 24.9673 45.0579 25.2106L37.0107 28.311C36.8165 28.3858 36.6112 28.4276 36.4032 28.4345V28.4345C34.8702 28.4859 33.9351 26.7665 34.8115 25.5076L36.5894 22.9538C36.9602 22.4212 37.5663 22.1016 38.2153 22.0965L44.457 22.0479C45.3655 22.0409 46.1057 22.7754 46.1057 23.6839V23.6839ZM114.612 14.206C114.612 15.3105 113.716 16.206 112.612 16.206H92.5008C87.5357 16.206 85.606 9.75166 89.7564 7.02643L91.4995 5.88187C93.9451 4.27604 96.8069 3.42045 99.7326 3.42045H112.612C113.716 3.42045 114.612 4.31588 114.612 5.42045V14.206ZM135.21 12.206C135.21 14.4151 133.419 16.206 131.21 16.206H119.418C118.314 16.206 117.418 15.3105 117.418 14.206V5.42044C117.418 4.31587 118.314 3.42045 119.418 3.42045H131.21C133.419 3.42045 135.21 5.21131 135.21 7.42045V12.206ZM194 25.1195H187.201C186.821 25.1195 186.449 25.0111 186.128 24.807L184.522 23.7851C184.222 23.5944 184.04 23.2637 184.04 22.9083V22.9083C184.04 22.3344 184.506 21.8691 185.08 21.8691H192C193.105 21.8691 194 22.7645 194 23.8691V25.1195Z" fill="#233B27" stroke="#233B27" stroke-miterlimit="10"/>
<path d="M57.6714 33.4272C49.6758 33.4272 43.1951 39.908 43.1951 47.9036C43.1951 55.8992 49.6758 62.3799 57.6714 62.3799C65.667 62.3799 72.1478 55.8992 72.1478 47.9036C72.1478 39.908 65.667 33.4272 57.6714 33.4272ZM57.6714 52.8362C54.8045 52.8362 52.4801 50.5118 52.4801 47.6449C52.4801 44.778 54.8045 42.4536 57.6714 42.4536C60.5383 42.4536 62.8627 44.778 62.8627 47.6449C62.8627 50.5118 60.5383 52.8362 57.6714 52.8362Z" fill="#233B27" stroke="#233B27" stroke-width="1.35" stroke-miterlimit="10"/>
<path d="M158.813 33.4272C150.817 33.4272 144.336 39.908 144.336 47.9036C144.336 55.8992 150.817 62.3799 158.813 62.3799C166.808 62.3799 173.289 55.8992 173.289 47.9036C173.289 39.908 166.808 33.4272 158.813 33.4272ZM158.813 52.8362C155.946 52.8362 153.621 50.5118 153.621 47.6449C153.621 44.778 155.946 42.4536 158.813 42.4536C161.68 42.4536 164.004 44.778 164.004 47.6449C164.004 50.5118 161.68 52.8362 158.813 52.8362Z" fill="#233B27" stroke="#233B27" stroke-width="1.35" stroke-miterlimit="10"/>
</svg>
