<svg width="25" height="23" viewBox="0 0 25 23" fill="none" xmlns="http://www.w3.org/2000/svg">
<path d="M3.98999 16.505H11.99" stroke="#233B27" stroke-linecap="round" stroke-linejoin="round"/>
<path d="M5.98999 16.505V18.505C5.98999 19.055 5.53999 19.505 4.98999 19.505H2.98999C2.43999 19.505 1.98999 19.055 1.98999 18.505V11.685C1.98999 10.905 2.16999 10.145 2.51999 9.445L4.88999 4.715C5.56999 3.355 6.94999 2.505 8.46999 2.505H15.53C17.05 2.505 18.43 3.365 19.11 4.715L21.48 9.445C21.56 9.615 21.64 9.78501 21.7 9.95501" stroke="#233B27" stroke-linecap="round" stroke-linejoin="round"/>
<path d="M22.99 8.51501H20.49C20.49 8.51501 16.99 9.50501 11.99 9.50501C6.98999 9.50501 3.48999 8.51501 3.48999 8.51501H0.98999" stroke="#233B27" stroke-linecap="round" stroke-linejoin="round"/>
<path d="M4.98999 11.505C4.98999 12.055 5.43999 12.505 5.98999 12.505H7.98999" stroke="#233B27" stroke-linecap="round" stroke-linejoin="round"/>
<path d="M9.98999 14.505H11.99" stroke="#233B27" stroke-linecap="round" stroke-linejoin="round"/>
<path d="M8.98999 2.505L9.70999 1.055C9.87999 0.715005 10.23 0.505005 10.6 0.505005H13.36C13.74 0.505005 14.09 0.715005 14.25 1.055L14.97 2.505" stroke="#233B27" stroke-linecap="round" stroke-linejoin="round"/>
<path d="M18.99 21.505C21.7514 21.505 23.99 19.2664 23.99 16.505C23.99 13.7436 21.7514 11.505 18.99 11.505C16.2286 11.505 13.99 13.7436 13.99 16.505C13.99 19.2664 16.2286 21.505 18.99 21.505Z" stroke="#233B27" stroke-linecap="round" stroke-linejoin="round"/>
<path d="M16.49 16.505L18.49 18.505L21.49 15.505" stroke="#233B27" stroke-linecap="round" stroke-linejoin="round"/>
</svg>
